HIERARCHY
ROOT Root
{
	OFFSET 0.00000 0.00000 0.00000
	CHANNELS 6 Xposition Yposition Zposition Zrotation Xrotation Yrotation
	JOINT Hips
	{
		OFFSET 0 0 0	
		CHANNELS 3 Zrotation Xrotation Yrotation
		JOINT Spine
		{
			OFFSET 0 4 0	
			CHANNELS 3 Zrotation Xrotation Yrotation
			JOINT Spine1
			{
				OFFSET 0 19.4 0	
				CHANNELS 3 Zrotation Xrotation Yrotation
				JOINT Spine2
				{
					OFFSET 0 16.6 0	
					CHANNELS 3 Zrotation Xrotation Yrotation
					JOINT LeftCollar
					{
						OFFSET 0 10 0	
						CHANNELS 3 Zrotation Xrotation Yrotation
						JOINT LeftArm
						{
							OFFSET 15.6 -2 3	
							CHANNELS 3 Zrotation Xrotation Yrotation
							JOINT LeftForeArm
							{
								OFFSET 3.5 -27 -1	
								CHANNELS 3 Zrotation Xrotation Yrotation
								JOINT LeftHand
								{
									OFFSET 1 -27 1	
									CHANNELS 3 Zrotation Xrotation Yrotation
									End Site
									{
										OFFSET 0 -15 0
									}
								}
							}
						}
					}
					JOINT RightCollar
					{
						OFFSET 0 10 0	
						CHANNELS 3 Zrotation Xrotation Yrotation
						JOINT RightArm
						{
							OFFSET -15.6 -2 3	
							CHANNELS 3 Zrotation Xrotation Yrotation
							JOINT RightForeArm
							{
								OFFSET -3.5 -27 -1	
								CHANNELS 3 Zrotation Xrotation Yrotation
								JOINT RightHand
								{
									OFFSET -1 -27 1	
									CHANNELS 3 Zrotation Xrotation Yrotation
									End Site
									{
										OFFSET 0 -15 0
									}
								}
							}
						}
					}
					JOINT Neck
					{
						OFFSET 0 10 0	
						CHANNELS 3 Zrotation Xrotation Yrotation
						JOINT Head
						{
							OFFSET 0 12.7 3	
							CHANNELS 3 Zrotation Xrotation Yrotation
							End Site
							{
								OFFSET 0 12.7 3
							}
						}
					}
				}
			}
		}
	}
	JOINT LeftHip
	{
		OFFSET 0 0 0	
		CHANNELS 3 Zrotation Xrotation Yrotation
		JOINT LeftUpLeg
		{
			OFFSET 8.8 -6 0	
			CHANNELS 3 Zrotation Xrotation Yrotation
			JOINT LeftLeg
			{
				OFFSET 0 -39 2	
				CHANNELS 3 Zrotation Xrotation Yrotation
				JOINT LeftFoot
				{
					OFFSET 0 -43 -2	
					CHANNELS 3 Zrotation Xrotation Yrotation
					JOINT LeftFootFront
					{
						OFFSET 0 -7 8.5	
						CHANNELS 3 Zrotation Xrotation Yrotation
						End Site
						{
							OFFSET 0 -0.5 9
						}
					}
				}
				JOINT LeftHeel
				{
					OFFSET 0 -43 -2	
					CHANNELS 3 Zrotation Xrotation Yrotation
					End Site
					{
						OFFSET 0 -7.5 -5
					}
				}
			}
		}
	}
	JOINT RightHip
	{
		OFFSET 0 0 0	
		CHANNELS 3 Zrotation Xrotation Yrotation
		JOINT RightUpLeg
		{
			OFFSET -8.8 -6 0	
			CHANNELS 3 Zrotation Xrotation Yrotation
			JOINT RightLeg
			{
				OFFSET 0 -39 2	
				CHANNELS 3 Zrotation Xrotation Yrotation
				JOINT RightFoot
				{
					OFFSET 0 -43 -2	
					CHANNELS 3 Zrotation Xrotation Yrotation
					JOINT RightFootFront
					{
						OFFSET 0 -7 8.5	
						CHANNELS 3 Zrotation Xrotation Yrotation
						End Site
						{
							OFFSET 0 -0.5 9
						}
					}
				}
				JOINT RightHeel
				{
					OFFSET 0 -43 -2	
					CHANNELS 3 Zrotation Xrotation Yrotation
					End Site
					{
						OFFSET 0 -7.5 -5
					}
				}
			}
		}
	}
}
MOTION
Frames: 12
Frame Time: 0.05
0 56.605 0 -0 0 -0 0.33289 6.0752 16.166 -1.3747 -2.0279 -2.975 -1.3747 -2.0279 -2.975 -1.1476 -1.7083 -2.4955 -0 0 -0 8.6655 -9.4689 1.6457 -21.127 -57.653 -26.722 41.929 20.074 -9.233 -0 0 -0 8.961 -21.574 -0.2414 51.344 -31.903 19.607 -32.077 0.19599 -0.13915 1.1656 -2.9357 -2.2068 1.1656 -2.9357 -2.2068 0.33289 6.0752 16.166 77.993 -61.418 59.467 -91.378 38.975 60.164 27.2 5.7162 19.898 0 0 -1.5958e-06 -0 0 -0 0.33289 6.0752 16.166 -117.3 -86.231 -138.06 -27.456 84.1 32.793 -12.789 -9.8496 -12.776 -0 0 1.0672e-07 -0 0 -0 
0 56.62 0 -0 0 -0 0.33545 6.0783 16.177 -1.3714 -2.0259 -2.9888 -1.3714 -2.0259 -2.9888 -1.1448 -1.7066 -2.5071 -0 0 -0 8.6995 -9.5035 1.656 -21.108 -57.626 -26.603 41.944 20.034 -9.2685 -0 0 -0 8.9909 -21.566 -0.24833 51.337 -31.914 19.62 -32.059 0.21072 -0.091507 1.1565 -2.9545 -2.1677 1.1565 -2.9545 -2.1677 0.33545 6.0783 16.177 77.935 -61.429 59.463 -91.352 38.987 60.092 27.227 5.75 19.934 0.012187 0.012763 -0.0028534 -0 0 -0 0.33545 6.0783 16.177 -117.42 -86.216 -138.19 -27.564 84.095 32.902 -12.791 -9.8385 -12.778 0.0034006 -0.0073871 -0.00040308 -0 0 -0 
0 56.639 0 -0 0 -0 0.33457 6.0827 16.19 -1.3658 -2.0221 -3.0041 -1.3658 -2.0221 -3.0041 -1.1401 -1.7034 -2.52 -0 0 -0 8.7143 -9.5562 1.6682 -21.023 -57.567 -26.484 41.926 20.026 -9.2509 -0 0 -0 9.0111 -21.561 -0.25397 51.339 -31.918 19.623 -32.097 0.17505 -0.074855 1.148 -2.9746 -2.1322 1.148 -2.9746 -2.1322 0.33457 6.0827 16.19 77.86 -61.432 59.392 -91.304 39.039 60.008 27.177 5.7593 19.968 0.010676 0.015619 -0.0042457 -0 0 -0 0.33457 6.0827 16.19 -117.55 -86.197 -138.34 -27.646 84.091 32.984 -12.792 -9.8346 -12.78 0.0092123 -0.006711 0.00071856 -0 0 -0 
0 56.664 0 -0 0 -0 0.32525 6.0895 16.209 -1.3556 -2.0277 -3.02 -1.3556 -2.0277 -3.02 -1.1315 -1.7081 -2.5334 -0 0 -0 8.6546 -9.5565 1.678 -20.933 -57.538 -26.41 41.921 20.015 -9.2536 -0 0 -0 8.9936 -21.531 -0.26747 51.357 -31.905 19.608 -32.108 0.12229 -0.064838 1.1332 -2.9735 -2.1089 1.1332 -2.9735 -2.1089 0.32525 6.0895 16.209 77.797 -61.44 59.326 -91.288 39.03 59.943 27.191 5.7783 19.999 0.0056124 0.020351 -0.0066313 -0 0 -0 0.32525 6.0895 16.209 -117.7 -86.172 -138.5 -27.64 84.089 32.974 -12.787 -9.8304 -12.774 0.0015149 -0.0090322 -0.0074119 -0 0 -0 
0 56.693 0 -0 0 -0 0.3185 6.0962 16.23 -1.3538 -2.0384 -3.0288 -1.3538 -2.0384 -3.0288 -1.1299 -1.7171 -2.5408 -0 0 -0 8.661 -9.5818 1.6746 -20.887 -57.485 -26.314 41.833 20.08 -9.2635 -0 0 -0 8.9712 -21.504 -0.30203 51.364 -31.872 19.575 -32.124 0.1405 -0.054528 1.1176 -2.952 -2.0965 1.1176 -2.952 -2.0965 0.3185 6.0962 16.23 77.719 -61.451 59.26 -91.26 39.007 59.865 27.218 5.8168 20.022 -0.00026689 0.015756 -0.0032712 -0 0 -0 0.3185 6.0962 16.23 -117.79 -86.144 -138.59 -27.576 84.092 32.91 -12.79 -9.8283 -12.78 -0.0045568 -0.0073668 -0.0026777 -0 0 -0 
0 56.724 0 -0 0 -0 0.31791 6.0959 16.248 -1.3526 -2.0328 -3.0356 -1.3526 -2.0328 -3.0356 -1.1289 -1.7124 -2.5465 -0 0 -0 8.6947 -9.621 1.6699 -20.822 -57.483 -26.262 41.662 20.202 -9.1633 -0 0 -0 8.9591 -21.52 -0.31941 51.357 -31.841 19.547 -32.124 0.16117 -0.056577 1.1027 -2.9447 -2.0733 1.1027 -2.9447 -2.0733 0.31791 6.0959 16.248 77.62 -61.453 59.179 -91.227 39.059 59.794 27.178 5.8143 20.052 -0.0095956 -0.067996 -0.0017907 -0 0 -0 0.31791 6.0959 16.248 -117.72 -86.121 -138.51 -27.506 84.096 32.842 -12.797 -9.8267 -12.784 -0.0032198 -0.014601 -0.0021055 -0 0 -0 
0 56.755 0 -0 0 -0 0.32557 6.0848 16.265 -1.3582 -2.0313 -3.0401 -1.3582 -2.0313 -3.0401 -1.1335 -1.7112 -2.5503 -0 0 -0 8.6852 -9.5772 1.6648 -20.785 -57.564 -26.292 41.383 20.381 -8.9157 -0 0 -0 8.9581 -21.516 -0.32983 51.341 -31.833 19.521 -32.158 0.18882 -0.064911 1.0977 -2.9243 -2.0497 1.0977 -2.9243 -2.0497 0.32557 6.0848 16.265 77.499 -61.452 59.069 -91.129 39.085 59.652 27.117 5.8709 20.087 0.0073587 -0.082923 0.0020467 -0 0 -0 0.32557 6.0848 16.265 -117.47 -86.102 -138.26 -27.543 84.096 32.886 -12.803 -9.8345 -12.787 0.0049898 -0.011725 -0.005068 -0 0 -0 
0 56.781 0 -0 0 -0 0.32315 6.0935 16.274 -1.3573 -2.047 -3.0397 -1.3573 -2.047 -3.0397 -1.1327 -1.7244 -2.5499 -0 0 -0 8.6951 -9.5836 1.6872 -20.791 -57.615 -26.324 40.951 20.667 -8.5343 -0 0 -0 8.9255 -21.496 -0.34295 51.328 -31.841 19.495 -32.199 0.18664 -0.054116 1.0878 -2.8897 -2.0368 1.0878 -2.8897 -2.0368 0.32315 6.0935 16.274 77.423 -61.449 59.018 -91.111 39.103 59.591 27.124 5.8722 20.119 0.01614 -0.09215 -0.00028484 -0 0 -0 0.32315 6.0935 16.274 -117.66 -86.079 -138.45 -27.594 84.1 32.937 -12.802 -9.8393 -12.787 -0.0004174 -0.0091399 -0.0095542 -0 0 -0 
0 56.8 0 -0 0 -0 0.32421 6.1098 16.282 -1.3683 -2.0551 -3.0283 -1.3683 -2.0551 -3.0283 -1.142 -1.7312 -2.5403 -0 0 -0 8.7743 -9.5831 1.685 -20.776 -57.597 -26.265 40.398 20.805 -7.9797 -0 0 -0 8.9203 -21.511 -0.39059 51.315 -31.838 19.484 -32.231 0.15745 -0.03588 1.0941 -2.866 -2.0492 1.0941 -2.8659 -2.0492 0.32421 6.1098 16.282 77.394 -61.448 58.969 -91.12 39.08 59.549 27.133 5.8819 20.154 0.010871 -0.10822 -0.0029831 -0 0 -0 0.32421 6.1098 16.282 -117.89 -86.053 -138.68 -27.628 84.109 32.974 -12.81 -9.844 -12.797 0.0052923 -0.0058168 -0.0049319 -0 0 -0 
0 56.81 0 -0 0 -0 0.32611 6.1181 16.292 -1.355 -2.0545 -3.0435 -1.355 -2.0545 -3.0435 -1.1308 -1.7307 -2.5531 -0 0 -0 8.7217 -9.557 1.7779 -20.765 -57.557 -26.263 39.908 20.879 -7.4886 -0 0 -0 8.8874 -21.534 -0.35393 51.306 -31.828 19.481 -32.253 0.14221 -0.017019 1.0739 -2.852 -2.0224 1.0739 -2.852 -2.0224 0.32611 6.1181 16.292 77.376 -61.449 58.919 -91.144 39.04 59.524 27.147 5.8934 20.183 0.016324 -0.12582 -0.0067831 -0 0 -0 0.32611 6.1181 16.292 -117.96 -86.034 -138.76 -27.675 84.111 33.028 -12.809 -9.8482 -12.804 0.0069547 -0.0077975 -0.0013992 -0 0 -0 
0 56.812 0 -0 0 -0 0.32869 6.1298 16.316 -1.3509 -2.0459 -3.0479 -1.3509 -2.0459 -3.0479 -1.1273 -1.7235 -2.5568 -0 0 -0 8.6647 -9.5897 1.8419 -20.799 -57.597 -26.29 39.501 20.996 -7.2823 -0 0 -0 8.8566 -21.567 -0.3549 51.31 -31.832 19.474 -32.258 0.13726 -0.047997 1.066 -2.8577 -2.0187 1.066 -2.8577 -2.0187 0.32869 6.1298 16.316 77.32 -61.465 58.853 -91.146 39.024 59.484 27.16 5.9006 20.208 0.0065999 -0.14141 -0.0068808 -0 0 -0 0.32869 6.1298 16.316 -118.09 -86 -138.88 -27.696 84.114 33.051 -12.807 -9.8472 -12.806 0.0024397 -0.0091454 -0.0054156 -0 0 -0 
0 56.807 0 -0 0 -0 0.33503 6.1481 16.338 -1.3639 -2.0477 -3.0358 -1.3639 -2.0477 -3.0358 -1.1383 -1.725 -2.5466 -0 0 -0 8.6988 -9.5452 1.813 -20.795 -57.637 -26.284 39.241 21.075 -7.2311 -0 0 -0 8.8408 -21.568 -0.42398 51.289 -31.81 19.453 -32.188 0.16444 -0.26807 1.0769 -2.8631 -2.0356 1.0769 -2.8631 -2.0356 0.33503 6.1481 16.338 77.416 -61.493 59.004 -91.223 39.065 59.515 27.174 5.9282 20.239 0.0015395 -0.16215 -0.011735 -0 0 -0 0.33503 6.1481 16.338 -118.28 -85.964 -139.07 -27.73 84.117 33.089 -12.811 -9.8462 -12.814 -0.0015435 -0.013537 -0.0063975 -0 0 -0 
